<svg width="55" height="55" viewBox="0 0 55 55" fill="none" xmlns="http://www.w3.org/2000/svg">
<path d="M27.5 33C30.5376 33 33 30.5376 33 27.5C33 24.4624 30.5376 22 27.5 22C24.4624 22 22 24.4624 22 27.5C22 30.5376 24.4624 33 27.5 33Z" fill="white"/>
<path d="M27.5 19C30.5376 19 33 16.5376 33 13.5C33 10.4624 30.5376 8 27.5 8C24.4624 8 22 10.4624 22 13.5C22 16.5376 24.4624 19 27.5 19Z" fill="white"/>
<path d="M27.5 47C30.5376 47 33 44.5376 33 41.5C33 38.4624 30.5376 36 27.5 36C24.4624 36 22 38.4624 22 41.5C22 44.5376 24.4624 47 27.5 47Z" fill="white"/>
</svg>
