<svg width="89" height="123" viewBox="0 0 89 123" fill="none" xmlns="http://www.w3.org/2000/svg">
<path fill-rule="evenodd" clip-rule="evenodd" d="M88.65 3.62V119.25C88.65 121.24 87.02 122.87 85.03 122.87H3.62C1.63 122.87 0 121.24 0 119.25V3.62C0 1.63 1.63 0 3.62 0H85.02C87.02 0 88.65 1.63 88.65 3.62ZM44.32 109.86C46.61 109.86 48.47 111.72 48.47 114.01C48.47 116.3 46.61 118.16 44.32 118.16C42.03 118.16 40.17 116.3 40.17 114.01C40.18 111.72 42.03 109.86 44.32 109.86ZM83.74 6.46V105.21H5.42V6.46H83.74Z" fill="white"/>
</svg>
