<svg width="645" height="585" viewBox="0 0 645 585" fill="none" xmlns="http://www.w3.org/2000/svg">
<path d="M297.297 550.868C283.522 535.432 249.127 505.339 220.863 483.994C137.119 420.752 125.721 411.6 91.7192 380.291C29.0347 322.571 2.41362 264.581 2.50484 185.951C2.54935 147.567 5.16561 132.779 15.9147 110.154C34.1514 71.7683 61.015 43.2447 95.36 25.7995C119.685 13.4437 131.683 7.95422 172.304 7.72963C214.798 7.4948 223.743 12.4494 248.739 26.1815C279.164 42.8958 310.479 78.6172 316.952 103.992L320.951 119.664L330.81 98.0799C386.526 -23.893 564.408 -22.0681 626.312 101.112C645.95 140.188 648.106 223.625 630.693 270.624C607.977 331.934 565.313 378.675 466.686 450.301C402.005 497.275 328.801 568.347 323.706 578.329C317.79 589.917 323.423 580.145 297.297 550.868Z" fill="#1DD05D"/>
</svg>
