<svg width="196" height="196" viewBox="0 0 196 196" fill="none" xmlns="http://www.w3.org/2000/svg">
<g clip-path="url(#clip0_7_2)">
<path d="M180.169 27.8401C169.905 17.5768 156.318 11.9673 141.817 11.9673C127.315 11.9673 113.686 17.6183 103.423 27.8816L98.0625 33.2418L92.6192 27.7985C82.356 17.5352 68.6854 11.8427 54.1839 11.8427C39.7239 11.8427 26.0949 17.4937 15.8732 27.7154C5.60989 37.9787 -0.0411411 51.6077 0.000410631 66.1092C0.000410631 80.6108 5.693 94.1982 15.9563 104.461L93.9905 182.496C95.0708 183.576 96.5251 184.158 97.9379 184.158C99.3506 184.158 100.805 183.618 101.885 182.537L180.086 104.628C190.349 94.3644 196 80.7354 196 66.2339C196.042 51.7323 190.432 38.1034 180.169 27.8401ZM172.191 96.6913L97.9379 170.653L23.8511 96.5667C15.707 88.4225 11.2194 77.6191 11.2194 66.1092C11.2194 54.5994 15.6654 43.7959 23.8096 35.6934C31.9121 27.5908 42.7156 23.1032 54.1839 23.1032C65.6937 23.1032 76.5387 27.5908 84.6829 35.7349L94.0736 45.1256C96.2758 47.3278 99.8077 47.3278 102.01 45.1256L111.318 35.818C119.462 27.6739 130.307 23.1863 141.775 23.1863C153.243 23.1863 164.047 27.6739 172.191 35.7765C180.335 43.9206 184.781 54.724 184.781 66.2339C184.823 77.7437 180.335 88.5472 172.191 96.6913Z" fill="white"/>
</g>
<defs>
<clipPath id="clip0_7_2">
<rect width="196" height="196" fill="white"/>
</clipPath>
</defs>
</svg>
