<svg width="512" height="407" viewBox="0 0 512 407" fill="none" xmlns="http://www.w3.org/2000/svg">
<g clip-path="url(#clip0_11_18)">
<path d="M97.761 343.106H77.388C56.085 343.106 36.726 334.401 22.717 320.392C8.705 306.38 0 287.01 0 265.718V77.388C0 56.092 8.709 36.733 22.721 22.721C36.733 8.70898 56.095 -3.05176e-05 77.388 -3.05176e-05H434.612C455.905 -3.05176e-05 475.274 8.70498 489.287 22.717C503.295 36.726 512 56.085 512 77.388V265.718C512 287.025 503.302 306.384 489.29 320.396C475.278 334.408 455.923 343.106 434.612 343.106H295.959V392.027C295.959 399.994 289.5 406.453 281.533 406.453C277.811 406.458 274.231 405.02 271.548 402.44L171.751 323.613C165.528 318.698 164.47 309.666 169.385 303.443C170.142 302.482 171.019 301.622 171.995 300.884L272.631 221.395C278.854 216.481 287.886 217.539 292.801 223.761C294.807 226.294 295.895 229.432 295.89 232.663H295.959V285.4H434.612C439.998 285.4 444.916 283.176 448.493 279.599C452.07 276.022 454.294 271.101 454.294 265.718V77.388C454.294 72.009 452.066 67.091 448.49 63.514C444.909 59.934 439.988 57.706 434.612 57.706H77.388C72.02 57.706 67.098 59.938 63.518 63.518C59.938 67.098 57.706 72.016 57.706 77.388V265.718C57.706 271.094 59.934 276.015 63.514 279.595C67.091 283.172 72.009 285.4 77.388 285.4H97.761V343.106Z" fill="white"/>
</g>
<defs>
<clipPath id="clip0_11_18">
<rect width="512" height="406.453" fill="white" transform="matrix(1 0 0 -1 0 406.453)"/>
</clipPath>
</defs>
</svg>
