<svg width="512" height="446" viewBox="0 0 512 446" fill="none" xmlns="http://www.w3.org/2000/svg">
<g clip-path="url(#clip0_37_2)">
<mask id="mask0_37_2" style="mask-type:luminance" maskUnits="userSpaceOnUse" x="6" y="0" width="512" height="407">
<path d="M518 406.453H6V0H518V406.453Z" fill="white"/>
</mask>
<g mask="url(#mask0_37_2)">
<path d="M103.761 343.106H83.388C62.085 343.106 42.726 334.401 28.717 320.392C14.705 306.38 6 287.01 6 265.718V77.388C6 56.092 14.709 36.733 28.721 22.721C42.733 8.70901 62.095 0 83.388 0H440.612C461.905 0 481.274 8.70501 495.287 22.717C509.295 36.726 518 56.085 518 77.388V265.718C518 287.025 509.302 306.384 495.29 320.396C481.278 334.408 461.923 343.106 440.612 343.106H301.959V392.027C301.959 399.994 295.5 406.453 287.533 406.453C283.811 406.458 280.231 405.02 277.548 402.44L177.751 323.613C171.528 318.698 170.47 309.666 175.385 303.443C176.142 302.482 177.019 301.622 177.995 300.884L278.631 221.395C284.854 216.481 293.886 217.539 298.801 223.761C300.807 226.294 301.895 229.432 301.89 232.663H301.959V285.4H440.612C445.998 285.4 450.916 283.176 454.493 279.599C458.07 276.022 460.294 271.101 460.294 265.718V77.388C460.294 72.009 458.066 67.091 454.49 63.514C450.909 59.934 445.988 57.706 440.612 57.706H83.388C78.02 57.706 73.098 59.938 69.518 63.518C65.938 67.098 63.706 72.016 63.706 77.388V265.718C63.706 271.094 65.934 276.015 69.514 279.595C73.091 283.172 78.009 285.4 83.388 285.4H103.761V343.106Z" fill="#1DD05D"/>
<path d="M276.784 189V106.056H263.472C261.68 114.76 253.488 121.416 241.584 121.672V132.168H261.68V189H276.784Z" fill="#1DD05D"/>
</g>
</g>
<circle cx="267.5" cy="434.5" r="11.5" fill="#1DD05D"/>
<defs>
<clipPath id="clip0_37_2">
<rect width="512" height="407" fill="white"/>
</clipPath>
</defs>
</svg>
