<svg width="123" height="121" viewBox="0 0 123 121" fill="none" xmlns="http://www.w3.org/2000/svg">
<path d="M98.11 2.04594e-06C102.184 -0.00165369 106.196 1.00167 109.79 2.92108C113.383 4.84048 116.448 7.6167 118.712 11.0037C120.977 14.3908 122.371 18.284 122.77 22.3385C123.17 26.393 122.564 30.4836 121.005 34.2477C119.446 38.0118 116.983 41.3334 113.833 43.9179C110.684 46.5024 106.946 48.2702 102.95 49.0646C98.9537 49.859 94.8235 49.6554 90.925 48.472C87.0265 47.2885 83.4801 45.1617 80.6 42.28C80.38 42.06 80.17 41.84 79.96 41.61L48.82 54.61C49.5345 57.537 49.7141 60.5691 49.35 63.56L81 78.31C85.378 74.1535 91.1286 71.7473 97.1621 71.5474C103.196 71.3475 109.093 73.3676 113.737 77.2251C118.38 81.0826 121.447 86.5095 122.357 92.4774C123.267 98.4452 121.956 104.54 118.673 109.605C115.39 114.671 110.362 118.357 104.543 119.964C98.7243 121.571 92.518 120.988 87.1003 118.325C81.6826 115.662 77.43 111.104 75.1483 105.515C72.8665 99.9257 72.7141 93.6938 74.72 88L45.34 74.26C42.502 78.5063 38.4208 81.7715 33.6552 83.6085C28.8897 85.4455 23.6728 85.7644 18.7189 84.5217C13.7651 83.2789 9.31647 80.5352 5.98232 76.6663C2.64818 72.7974 0.591499 67.9924 0.093925 62.9093C-0.403649 57.8262 0.682209 52.7136 3.2028 48.2716C5.7234 43.8296 9.55549 40.2753 14.1743 38.0955C18.7931 35.9157 23.9729 35.2169 29.0042 36.0949C34.0355 36.9729 38.6724 39.3847 42.28 43C42.72 43.44 43.15 43.9 43.55 44.37L74.29 31.55C73.2413 27.8649 73.0617 23.9868 73.7654 20.2206C74.4691 16.4543 76.0369 12.9027 78.3455 9.84492C80.6541 6.78714 83.6406 4.30659 87.0701 2.59831C90.4996 0.890042 94.2786 0.000625696 98.11 2.04594e-06Z" fill="white"/>
</svg>
