<svg width="123" height="106" viewBox="0 0 123 106" fill="none" xmlns="http://www.w3.org/2000/svg">
<g clip-path="url(#clip0_41_8)">
<mask id="mask0_41_8" style="mask-type:luminance" maskUnits="userSpaceOnUse" x="0" y="0" width="123" height="106">
<path d="M122.88 0H0V105.71H122.88V0Z" fill="white"/>
</mask>
<g mask="url(#mask0_41_8)">
<path fill-rule="evenodd" clip-rule="evenodd" d="M8.45641e-06 79.45C-0.0199915 77.5 0.760008 76.39 2.51001 76.27H16.59C22.57 76.27 25.48 76.43 30.57 72.36C31.65 71.5 32.67 70.5 33.63 69.36C38.18 63.95 39.8 57.4 41.5 50.46C44.79 37 50.03 22.78 63.98 17.15C71.92 13.95 82.8 14.56 91.39 14.56H96.66L96.67 4.50999C96.67 -0.500003 97.85 -1.37001 101.46 2.05999L121.01 20.64C123.37 22.88 123.04 24.34 120.79 26.5L101.49 45C98.12 48.41 96.6 47.45 96.67 42.74V30.94C62.67 30.42 64.1 32.61 54.62 65.03C51.12 75.07 45.81 82.11 39.03 86.72C31.94 91.54 25.35 93.11 17.01 93.11H6.65001C0.710009 93.11 8.45641e-06 92.83 8.45641e-06 86.75V79.45ZM0.230008 26.26C0.210008 28.21 0.990008 29.32 2.74001 29.44H17.44C23.42 29.44 26.33 29.28 31.42 33.35C32.5 34.21 33.52 35.21 34.48 36.35C35.64 37.73 36.61 39.19 37.44 40.7C38.94 36.01 40.8 31.41 43.26 27.2C43.96 26.01 44.7 24.85 45.49 23.72C43.75 21.92 41.88 20.35 39.88 18.99C32.79 14.17 26.2 12.6 17.86 12.6H6.88001C0.940009 12.6 0.230008 12.88 0.230008 18.96V26.26ZM53.57 80.45C56.53 83.87 60.2 86.69 64.84 88.56C72.78 91.76 83.05 91.15 91.64 91.15H96.91L96.92 101.2C96.92 106.21 98.1 107.08 101.71 103.65L121.26 85.07C123.62 82.83 123.29 81.37 121.04 79.21L101.74 60.71C98.37 57.3 96.85 58.26 96.92 62.97V74.77C72.14 75.15 66.5 74.08 61.6 60.93C61.33 61.87 60.96 63.16 59.67 67.58C59.64 67.68 59.61 67.77 59.58 67.86C57.91 72.62 55.9 76.79 53.57 80.45Z" fill="#1DD05D"/>
</g>
</g>
<defs>
<clipPath id="clip0_41_8">
<rect width="123" height="106" fill="white"/>
</clipPath>
</defs>
</svg>
